<mxfile host="app.diagrams.net" modified="2023-06-16T10:30:12.174Z" agent="Mozilla/5.0 (Windows NT 10.0; Win64; x64) AppleWebKit/537.36 (KHTML, like Gecko) Chrome/114.0.0.0 Safari/537.36" version="21.3.8" etag="oNcpjC-4I-KBi5JcbPTD" type="github">
  <diagram name="Page-1" id="JI3EfG03txVul78gmGVp">
    <mxGraphModel>
      <root>
        <mxCell id="0" />
        <mxCell id="1" parent="0" />
      </root>
    </mxGraphModel>
  </diagram>
</mxfile>
